<?xml version="1.0" encoding="UTF-8" standalone="no"?>
<!-- Created with Inkscape (http://www.inkscape.org/) -->

<svg
   xmlns:dc="http://purl.org/dc/elements/1.1/"
   xmlns:cc="http://creativecommons.org/ns#"
   xmlns:rdf="http://www.w3.org/1999/02/22-rdf-syntax-ns#"
   xmlns:svg="http://www.w3.org/2000/svg"
   xmlns="http://www.w3.org/2000/svg"
   xmlns:sodipodi="http://sodipodi.sourceforge.net/DTD/sodipodi-0.dtd"
   xmlns:inkscape="http://www.inkscape.org/namespaces/inkscape"
   width="1000"
   height="1000"
   viewBox="0 0 1000 1000"
   version="1.1"
   id="svg11154"
   inkscape:version="0.92.4 (unknown)"
   sodipodi:docname="I.svg">
  <defs
     id="defs11148" />
  <sodipodi:namedview
     id="base"
     pagecolor="#ffffff"
     bordercolor="#666666"
     borderopacity="1.0"
     inkscape:pageopacity="0.0"
     inkscape:pageshadow="2"
     inkscape:zoom="0.846"
     inkscape:cx="489.3617"
     inkscape:cy="510.6383"
     inkscape:document-units="px"
     inkscape:current-layer="layer1"
     showgrid="true"
     units="px"
     showguides="true"
     inkscape:guide-bbox="true"
     inkscape:window-width="1850"
     inkscape:window-height="1016"
     inkscape:window-x="70"
     inkscape:window-y="27"
     inkscape:window-maximized="1"
     objecttolerance="20">
    <inkscape:grid
       type="xygrid"
       id="grid11699" />
    <sodipodi:guide
       position="0,300"
       orientation="0,1"
       id="guide11701"
       inkscape:locked="false" />
  </sodipodi:namedview>
  <metadata
     id="metadata11151">
    <rdf:RDF>
      <cc:Work
         rdf:about="">
        <dc:format>image/svg+xml</dc:format>
        <dc:type
           rdf:resource="http://purl.org/dc/dcmitype/StillImage" />
        <dc:title></dc:title>
      </cc:Work>
    </rdf:RDF>
  </metadata>
  <g
     inkscape:label="Layer 1"
     inkscape:groupmode="layer"
     id="layer1"
     transform="translate(0,-32.416631)">
    <path
       style="opacity:1;fill:#ffffff;fill-opacity:1;stroke:#000000;stroke-width:1.99945116;stroke-miterlimit:4;stroke-dasharray:none;stroke-opacity:1"
       d="m 320.0377,243.60775 -27.33058,27.33058 A 103.15377,103.15377 0 0 1 353.15919,364.74305 103.15377,103.15377 0 0 1 249.98661,467.88942 103.15377,103.15377 0 0 1 146.84054,364.74305 103.15377,103.15377 0 0 1 207.29261,270.98956 L 179.93633,243.63315 A 249.00266,249.00266 0 0 0 0.9997256,482.42964 249.00266,249.00266 0 0 0 250.01314,731.41691 249.00266,249.00266 0 0 0 499.00002,482.42964 249.00266,249.00266 0 0 0 320.0377,243.60775 Z"
       id="path4566-3-6-8"
       inkscape:connector-curvature="0" />
  </g>
</svg>
